<?xml version="1.0" encoding="utf-8"?>
<!-- Generator: Adobe Illustrator 16.0.3, SVG Export Plug-In . SVG Version: 6.00 Build 0)  -->
<!DOCTYPE svg PUBLIC "-//W3C//DTD SVG 1.1//EN" "http://www.w3.org/Graphics/SVG/1.1/DTD/svg11.dtd">
<svg version="1.1" id="Capa_1" xmlns="http://www.w3.org/2000/svg" xmlns:xlink="http://www.w3.org/1999/xlink" x="0px" y="0px"
	 width="351.58px" height="89.252px" viewBox="0 0 351.58 89.252" enable-background="new 0 0 351.58 89.252" xml:space="preserve">
<path fill="#FFFFFF" d="M113.043,18.481h10.033v54.444h-10.033v-4.589c-2.956,3.786-7.156,5.678-12.6,5.678
	c-5.238,0-9.71-1.983-13.417-5.949c-3.707-3.967-5.561-8.828-5.561-14.583c0-5.756,1.854-10.617,5.561-14.583
	c3.707-3.967,8.179-5.95,13.417-5.95c5.444,0,9.644,1.893,12.6,5.677V18.481z M94.571,61.375c2.048,2.049,4.628,3.072,7.739,3.072
	c3.111,0,5.677-1.023,7.699-3.072c2.023-2.048,3.034-4.679,3.034-7.894c0-3.215-1.011-5.846-3.034-7.895
	c-2.022-2.047-4.588-3.072-7.699-3.072c-3.111,0-5.691,1.025-7.739,3.072c-2.049,2.049-3.072,4.68-3.072,7.895
	C91.5,56.696,92.522,59.327,94.571,61.375"/>
<path fill="#FFFFFF" d="M136.453,29.371c-1.66,0-3.099-0.609-4.317-1.828c-1.219-1.218-1.828-2.657-1.828-4.317
	c0-1.659,0.609-3.111,1.828-4.355c1.218-1.245,2.657-1.867,4.317-1.867c1.711,0,3.175,0.622,4.394,1.867
	c1.218,1.244,1.828,2.696,1.828,4.355c0,1.66-0.61,3.099-1.828,4.317C139.628,28.762,138.164,29.371,136.453,29.371 M131.475,34.037
	h10.033v38.888h-10.033V34.037z"/>
<path fill="#FFFFFF" d="M171.53,32.948c4.251,0,7.764,1.427,10.538,4.278c2.774,2.852,4.162,6.793,4.162,11.822v23.877h-10.033
	V50.292c0-2.592-0.7-4.575-2.101-5.95c-1.399-1.373-3.266-2.061-5.599-2.061c-2.594,0-4.667,0.805-6.222,2.411
	c-1.556,1.608-2.334,4.019-2.334,7.233v21h-10.033V34.037h10.033v4.355C162.378,34.764,166.241,32.948,171.53,32.948"/>
<path fill="#FFFFFF" d="M202.485,57.604c1.347,4.874,5.003,7.312,10.966,7.312c3.837,0,6.74-1.297,8.711-3.89l8.089,4.666
	c-3.838,5.549-9.489,8.322-16.955,8.322c-6.43,0-11.589-1.944-15.478-5.833s-5.833-8.789-5.833-14.7
	c0-5.858,1.917-10.745,5.755-14.66c3.837-3.915,8.762-5.873,14.778-5.873c5.703,0,10.409,1.972,14.116,5.912
	c3.707,3.941,5.561,8.815,5.561,14.621c0,1.297-0.13,2.672-0.389,4.123H202.485z M202.329,49.826h19.833
	c-0.571-2.644-1.75-4.614-3.539-5.911c-1.789-1.295-3.824-1.944-6.105-1.944c-2.697,0-4.927,0.687-6.688,2.061
	C204.066,45.406,202.899,47.336,202.329,49.826"/>
<rect x="238.416" y="16.148" fill="#FFFFFF" width="10.033" height="56.777"/>
<path fill="#FFFFFF" d="M275.36,74.014c-5.86,0-10.747-1.97-14.661-5.911c-3.915-3.939-5.872-8.813-5.872-14.622
	c0-5.806,1.957-10.681,5.872-14.622c3.914-3.94,8.801-5.911,14.661-5.911c3.784,0,7.232,0.908,10.344,2.722
	c3.111,1.816,5.47,4.253,7.078,7.311l-8.634,5.056c-0.777-1.607-1.957-2.878-3.538-3.811c-1.583-0.933-3.358-1.4-5.328-1.4
	c-3.009,0-5.497,0.999-7.468,2.994c-1.969,1.997-2.954,4.55-2.954,7.661c0,3.06,0.985,5.587,2.954,7.583
	c1.971,1.996,4.459,2.994,7.468,2.994c2.022,0,3.823-0.453,5.406-1.361c1.581-0.906,2.761-2.164,3.538-3.772l8.711,4.978
	c-1.711,3.061-4.122,5.511-7.233,7.351S279.145,74.014,275.36,74.014"/>
<path fill="#FFFFFF" d="M329.959,68.064c-3.993,3.967-8.866,5.949-14.622,5.949c-5.755,0-10.616-1.982-14.583-5.949
	c-3.966-3.968-5.95-8.828-5.95-14.583c0-5.755,1.984-10.616,5.95-14.583c3.967-3.967,8.828-5.95,14.583-5.95
	c5.756,0,10.629,1.983,14.622,5.95c3.992,3.967,5.988,8.828,5.988,14.583C335.947,59.236,333.951,64.097,329.959,68.064
	 M307.832,61.181c1.995,2.022,4.497,3.033,7.505,3.033c3.007,0,5.522-1.011,7.545-3.033c2.021-2.021,3.033-4.589,3.033-7.7
	s-1.012-5.678-3.033-7.7c-2.022-2.022-4.538-3.033-7.545-3.033c-3.008,0-5.51,1.011-7.505,3.033c-1.997,2.021-2.995,4.589-2.995,7.7
	S305.835,59.159,307.832,61.181"/>
<path fill="#713B9A" d="M349.637,71.992c-1.297,1.295-2.853,1.944-4.667,1.944c-1.815,0-3.371-0.649-4.666-1.944
	c-1.297-1.296-1.945-2.852-1.945-4.667c0-1.814,0.648-3.37,1.945-4.666c1.295-1.296,2.851-1.945,4.666-1.945
	c1.814,0,3.37,0.649,4.667,1.945c1.296,1.296,1.943,2.852,1.943,4.666C351.58,69.141,350.933,70.696,349.637,71.992"/>
<path fill="#8754B6" d="M36.862,89.252c-9.548,0-18.616-3.618-25.535-10.187c-6.97-6.619-10.985-15.51-11.306-25.034
	c-0.337-9.989,3.296-19.44,10.229-26.611c6.937-7.174,16.251-11.125,26.228-11.125v10.043c-7.23,0-13.98,2.864-19.007,8.063
	c-5.025,5.197-7.657,12.048-7.413,19.292c0.232,6.874,3.139,13.298,8.185,18.09c5.044,4.789,11.656,7.427,18.619,7.427
	c14.377,0,26.074-11.697,26.074-26.074V10.044h-7.891c-1.148,0-2.226,0.447-3.037,1.259c-0.812,0.812-1.257,1.89-1.255,3.038
	l0.042,38.45c0,3.938-1.643,7.738-4.51,10.432c-2.906,2.732-6.706,4.103-10.699,3.853c-7.179-0.446-12.929-6.195-13.375-13.374
	c-0.247-3.993,1.121-7.794,3.853-10.7c2.693-2.866,6.493-4.51,10.425-4.51v10.043c-1.188,0-2.292,0.478-3.107,1.345
	c-0.814,0.866-1.221,2.002-1.147,3.199c0.131,2.098,1.876,3.843,3.973,3.973c1.197,0.074,2.334-0.333,3.199-1.146
	c0.867-0.815,1.345-1.919,1.345-3.108l-0.043-38.445c-0.004-3.832,1.485-7.436,4.193-10.147C47.611,1.494,51.213,0,55.045,0h17.934
	v53.135C72.979,73.05,56.777,89.252,36.862,89.252"/>
<g>
</g>
<g>
</g>
<g>
</g>
<g>
</g>
<g>
</g>
<g>
</g>
<g>
</g>
<g>
</g>
<g>
</g>
<g>
</g>
<g>
</g>
<g>
</g>
<g>
</g>
<g>
</g>
<g>
</g>
</svg>
